<mxfile host="app.diagrams.net" modified="2023-04-05T18:38:40.699Z" agent="Mozilla/5.0 (Macintosh; Intel Mac OS X 10_15_7) AppleWebKit/537.36 (KHTML, like Gecko) Chrome/111.0.0.0 Safari/537.36" etag="LMVM9PvvFn8Efs2rUoX_" version="21.1.4" type="device">
  <diagram name="Seite-1" id="YmIhbkKCinAWM5nXsfyk">
    <mxGraphModel dx="1434" dy="745" grid="1" gridSize="10" guides="1" tooltips="1" connect="1" arrows="1" fold="1" page="1" pageScale="1" pageWidth="827" pageHeight="1169" math="0" shadow="0">
      <root>
        <mxCell id="0" />
        <mxCell id="1" parent="0" />
        <mxCell id="fDH5sGSKuXNsmmo5VWAY-113" value="" style="rounded=1;whiteSpace=wrap;html=1;dashed=1;dashPattern=8 8;fontSize=16;fillColor=none;" parent="1" vertex="1">
          <mxGeometry x="240" y="660" width="480" height="210" as="geometry" />
        </mxCell>
        <mxCell id="nIbC79SBTbd_XwJ7WxPT-1" style="edgeStyle=orthogonalEdgeStyle;rounded=0;orthogonalLoop=1;jettySize=auto;html=1;" edge="1" parent="1" source="fDH5sGSKuXNsmmo5VWAY-17">
          <mxGeometry relative="1" as="geometry">
            <mxPoint x="240" y="770" as="targetPoint" />
          </mxGeometry>
        </mxCell>
        <mxCell id="fDH5sGSKuXNsmmo5VWAY-17" value="Collect" style="outlineConnect=0;dashed=0;verticalLabelPosition=bottom;verticalAlign=top;align=center;html=1;shape=mxgraph.aws3.lambda_function;fillColor=#F58534;gradientColor=#2E73B8;fontSize=16;" parent="1" vertex="1">
          <mxGeometry x="120" y="730" width="76.67" height="80" as="geometry" />
        </mxCell>
        <mxCell id="fDH5sGSKuXNsmmo5VWAY-49" style="edgeStyle=orthogonalEdgeStyle;rounded=0;orthogonalLoop=1;jettySize=auto;html=1;strokeWidth=1;fontSize=16;startArrow=none;startFill=1;endArrow=none;endFill=0;" parent="1" edge="1">
          <mxGeometry relative="1" as="geometry">
            <mxPoint x="720" y="780" as="targetPoint" />
            <mxPoint x="740" y="780" as="sourcePoint" />
          </mxGeometry>
        </mxCell>
        <mxCell id="fDH5sGSKuXNsmmo5VWAY-71" style="edgeStyle=orthogonalEdgeStyle;rounded=0;orthogonalLoop=1;jettySize=auto;html=1;entryX=0.06;entryY=0.5;entryDx=0;entryDy=0;entryPerimeter=0;strokeWidth=1;fontSize=16;startArrow=none;startFill=0;endArrow=classic;endFill=1;" parent="1" source="fDH5sGSKuXNsmmo5VWAY-18" edge="1">
          <mxGeometry relative="1" as="geometry">
            <mxPoint x="901.8437999999996" y="780" as="targetPoint" />
          </mxGeometry>
        </mxCell>
        <mxCell id="fDH5sGSKuXNsmmo5VWAY-18" value="Merge" style="outlineConnect=0;dashed=0;verticalLabelPosition=bottom;verticalAlign=top;align=center;html=1;shape=mxgraph.aws3.lambda_function;fillColor=#F58534;gradientColor=#2E73B8;fontSize=16;" parent="1" vertex="1">
          <mxGeometry x="800" y="740" width="76.67" height="80" as="geometry" />
        </mxCell>
        <mxCell id="fDH5sGSKuXNsmmo5VWAY-28" value="" style="outlineConnect=0;dashed=0;verticalLabelPosition=bottom;verticalAlign=top;align=center;html=1;shape=mxgraph.aws3.polly;fillColor=#F58534;gradientColor=none;fontSize=16;" parent="1" vertex="1">
          <mxGeometry x="622.91" y="689.25" width="30.85" height="37.5" as="geometry" />
        </mxCell>
        <mxCell id="fDH5sGSKuXNsmmo5VWAY-29" value="" style="sketch=0;points=[[0,0,0],[0.25,0,0],[0.5,0,0],[0.75,0,0],[1,0,0],[0,1,0],[0.25,1,0],[0.5,1,0],[0.75,1,0],[1,1,0],[0,0.25,0],[0,0.5,0],[0,0.75,0],[1,0.25,0],[1,0.5,0],[1,0.75,0]];outlineConnect=0;fontColor=#232F3E;gradientColor=#F58534;gradientDirection=north;fillColor=#F58534;strokeColor=#ffffff;dashed=0;verticalLabelPosition=bottom;verticalAlign=top;align=center;html=1;fontSize=16;fontStyle=0;aspect=fixed;shape=mxgraph.aws4.resourceIcon;resIcon=mxgraph.aws4.translate;" parent="1" vertex="1">
          <mxGeometry x="463.33" y="695" width="30" height="30" as="geometry" />
        </mxCell>
        <mxCell id="fDH5sGSKuXNsmmo5VWAY-30" value="" style="dashed=0;outlineConnect=0;html=1;align=center;labelPosition=center;verticalLabelPosition=bottom;verticalAlign=top;shape=mxgraph.webicons.translate;gradientColor=#2E73B8;fontSize=16;fillColor=#2E73B8;" parent="1" vertex="1">
          <mxGeometry x="463.33000000000004" y="813.25" width="30" height="30" as="geometry" />
        </mxCell>
        <mxCell id="fDH5sGSKuXNsmmo5VWAY-31" value="" style="editableCssRules=.*;shape=image;verticalLabelPosition=bottom;labelBackgroundColor=#ffffff;verticalAlign=top;aspect=fixed;imageAspect=0;image=data:image/svg+xml,PHN2ZyB4bWxucz0iaHR0cDovL3d3dy53My5vcmcvMjAwMC9zdmciIHhtbG5zOnY9Imh0dHBzOi8vdmVjdGEuaW8vbmFubyIgd2lkdGg9IjIwLjAwMDQ2MzQ4NTcxNzc3MyIgaGVpZ2h0PSIxNi42MzE1MTU1MDI5Mjk2ODgiIHZpZXdCb3g9IjAgMC4wMDAyNDE0MDk2NTI1MTcxNzcxNiAyMC4wMDA0NjM0ODU3MTc3NzMgMTYuNjMxNTE1NTAyOTI5Njg4Ij4mI3hhOwk8c3R5bGUgdHlwZT0idGV4dC9jc3MiPi5zdDAgeyBmaWxsOiByZ2IoNDYsIDExNSwgMTg0KTsgfSAuc3QxIHsgZmlsbDogcmdiKDQ2LCAxMTUsIDE4NCk7IH0gPC9zdHlsZT4mI3hhOwk8cGF0aCBjbGFzcz0ic3QwIiBkPSJNLjAxIDMuMzA2aDYuNjR2MS42N0guMDF6bS0uMDEgMTBoMCA5LjE3di0xLjY3SDB6bTAtNC4xN2g0LjE4SDEwbC0xLjY3LTEuNjZIMi41MSAweiIvPiYjeGE7CTxwYXRoIGNsYXNzPSJzdDEiIGQ9Ik0xMCA1LjM4NmEuNDIuNDIgMCAwIDEgLjQyLS4zNi40MS40MSAwIDAgMSAuNDEuMzZ2OS4xOGEyLjA5IDIuMDkgMCAwIDAgMi42MSAyIDIuMTYgMi4xNiAwIDAgMCAxLjU2LTIuMTFWMi4wNjZhLjQuNCAwIDAgMSAuMTktLjQuNDEuNDEgMCAwIDEgLjQ1IDAgLjQuNCAwIDAgMSAuMTkuNHY5LjE2YTIuMDcgMi4wNyAwIDAgMCAuODEgMS42NCAyIDIgMCAwIDAgMS44LjM3IDIuMTYgMi4xNiAwIDAgMCAxLjU2LTIuMTJ2LTIuOGgtMS42N3YyLjkyYS40LjQgMCAwIDEtLjE5LjQuNDEuNDEgMCAwIDEtLjQ1IDAgLjQuNCAwIDAgMS0uMTktLjR2LTkuMTdhMi4wOSAyLjA5IDAgMCAwLTIuNjEtMiAyLjE2IDIuMTYgMCAwIDAtMS41NiAyLjEzdjEyLjM3YS40LjQgMCAwIDEtLjE5LjQuNDEuNDEgMCAwIDEtLjQ1IDAgLjQuNCAwIDAgMS0uMTktLjR2LTkuMTdhMi4wNyAyLjA3IDAgMCAwLTQuMTEtLjM2IDIuNCAyLjQgMCAwIDAtLjA1LjQ2djJMMTAgOS4xMzZ6Ii8+JiN4YTs8L3N2Zz4=;fontSize=16;" parent="1" vertex="1">
          <mxGeometry x="618.47" y="813.25" width="35.29" height="30" as="geometry" />
        </mxCell>
        <mxCell id="fDH5sGSKuXNsmmo5VWAY-32" value="" style="sketch=0;points=[[0,0,0],[0.25,0,0],[0.5,0,0],[0.75,0,0],[1,0,0],[0,1,0],[0.25,1,0],[0.5,1,0],[0.75,1,0],[1,1,0],[0,0.25,0],[0,0.5,0],[0,0.75,0],[1,0.25,0],[1,0.5,0],[1,0.75,0]];outlineConnect=0;fontColor=#232F3E;gradientColor=#F58534;gradientDirection=north;fillColor=#F58534;strokeColor=#ffffff;dashed=0;verticalLabelPosition=bottom;verticalAlign=top;align=center;html=1;fontSize=16;fontStyle=0;aspect=fixed;shape=mxgraph.aws4.resourceIcon;resIcon=mxgraph.aws4.textract;" parent="1" vertex="1">
          <mxGeometry x="301.84000000000003" y="692.75" width="33" height="33" as="geometry" />
        </mxCell>
        <mxCell id="fDH5sGSKuXNsmmo5VWAY-33" value="" style="editableCssRules=.*;shape=image;verticalLabelPosition=bottom;labelBackgroundColor=#ffffff;verticalAlign=top;aspect=fixed;imageAspect=0;image=data:image/svg+xml,PHN2ZyB4bWxucz0iaHR0cDovL3d3dy53My5vcmcvMjAwMC9zdmciIHhtbG5zOnY9Imh0dHBzOi8vdmVjdGEuaW8vbmFubyIgd2lkdGg9IjIwIiBoZWlnaHQ9IjE2IiB2aWV3Qm94PSIwIDAgMjAgMTYiPiYjeGE7CTxzdHlsZSB0eXBlPSJ0ZXh0L2NzcyI+LnN0MCB7IGZpbGw6IHJnYig0NiwgMTE1LCAxODQpOyB9IC5zdDEgeyBmaWxsOiByZ2IoNDYsIDExNSwgMTg0KTsgfSAuc3QyIHsgZmlsbDogcmdiKDY2LCAxMzMsIDI0NCk7IH0gPC9zdHlsZT4mI3hhOwk8ZyBjbGFzcz0ic3QwIj4mI3hhOwkJPHBhdGggZD0iTTEwIDE2TDAgOGg0bDYgNC45OXoiLz4mI3hhOwkJPHBhdGggZD0iTTIwIDhsLTEwIDh2LTMuMDFMMTYgOHoiLz4mI3hhOwk8L2c+JiN4YTsJPGcgY2xhc3M9InN0MSI+JiN4YTsJCTxwYXRoIGQ9Ik0xMCAzLjAxTDQgOEgwbDEwLTh6Ii8+JiN4YTsJCTxwYXRoIGQ9Ik0yMCA4TDEwIDB2My4wMUwxNiA4eiIvPiYjeGE7CTwvZz4mI3hhOwk8Y2lyY2xlIGNsYXNzPSJzdDIiIGN4PSIxMCIgY3k9IjgiIHI9IjIiLz4mI3hhOzwvc3ZnPg==;fontSize=16;" parent="1" vertex="1">
          <mxGeometry x="294.89" y="812.25" width="46.88" height="37.5" as="geometry" />
        </mxCell>
        <mxCell id="fDH5sGSKuXNsmmo5VWAY-34" style="edgeStyle=orthogonalEdgeStyle;rounded=0;orthogonalLoop=1;jettySize=auto;html=1;fontSize=16;" parent="1" source="fDH5sGSKuXNsmmo5VWAY-35" target="fDH5sGSKuXNsmmo5VWAY-38" edge="1">
          <mxGeometry relative="1" as="geometry" />
        </mxCell>
        <mxCell id="fDH5sGSKuXNsmmo5VWAY-35" value="" style="outlineConnect=0;dashed=0;verticalLabelPosition=bottom;verticalAlign=top;align=center;html=1;shape=mxgraph.aws3.lambda_function;fillColor=#F58534;gradientColor=#2E73B8;fontSize=16;" parent="1" vertex="1">
          <mxGeometry x="440" y="730" width="76.67" height="80" as="geometry" />
        </mxCell>
        <mxCell id="fDH5sGSKuXNsmmo5VWAY-36" style="edgeStyle=orthogonalEdgeStyle;rounded=0;orthogonalLoop=1;jettySize=auto;html=1;fontSize=16;" parent="1" source="fDH5sGSKuXNsmmo5VWAY-37" target="fDH5sGSKuXNsmmo5VWAY-35" edge="1">
          <mxGeometry relative="1" as="geometry" />
        </mxCell>
        <mxCell id="fDH5sGSKuXNsmmo5VWAY-111" style="edgeStyle=orthogonalEdgeStyle;rounded=0;orthogonalLoop=1;jettySize=auto;html=1;strokeWidth=1;fontSize=16;startArrow=classic;startFill=1;endArrow=none;endFill=0;" parent="1" source="fDH5sGSKuXNsmmo5VWAY-37" edge="1">
          <mxGeometry relative="1" as="geometry">
            <mxPoint x="240" y="760" as="targetPoint" />
            <Array as="points">
              <mxPoint x="240" y="770" />
            </Array>
          </mxGeometry>
        </mxCell>
        <mxCell id="fDH5sGSKuXNsmmo5VWAY-37" value="" style="outlineConnect=0;dashed=0;verticalLabelPosition=bottom;verticalAlign=top;align=center;html=1;shape=mxgraph.aws3.lambda_function;fillColor=#F58534;gradientColor=#2E73B8;fontSize=16;" parent="1" vertex="1">
          <mxGeometry x="280" y="730" width="76.67" height="80" as="geometry" />
        </mxCell>
        <mxCell id="fDH5sGSKuXNsmmo5VWAY-105" style="edgeStyle=orthogonalEdgeStyle;rounded=0;orthogonalLoop=1;jettySize=auto;html=1;strokeWidth=1;fontSize=16;startArrow=none;startFill=0;endArrow=classic;endFill=1;" parent="1" source="fDH5sGSKuXNsmmo5VWAY-38" edge="1">
          <mxGeometry relative="1" as="geometry">
            <mxPoint x="720" y="780" as="targetPoint" />
            <Array as="points">
              <mxPoint x="670" y="780" />
              <mxPoint x="670" y="780" />
            </Array>
          </mxGeometry>
        </mxCell>
        <mxCell id="fDH5sGSKuXNsmmo5VWAY-38" value="" style="outlineConnect=0;dashed=0;verticalLabelPosition=bottom;verticalAlign=top;align=center;html=1;shape=mxgraph.aws3.lambda_function;fillColor=#F58534;gradientColor=#2E73B8;fontSize=16;" parent="1" vertex="1">
          <mxGeometry x="600" y="730" width="76.67" height="80" as="geometry" />
        </mxCell>
        <mxCell id="fDH5sGSKuXNsmmo5VWAY-39" value="Transcribe" style="text;html=1;strokeColor=none;fillColor=none;align=center;verticalAlign=middle;whiteSpace=wrap;rounded=0;fontSize=16;" parent="1" vertex="1">
          <mxGeometry x="288.33" y="844.25" width="60" height="30" as="geometry" />
        </mxCell>
        <mxCell id="fDH5sGSKuXNsmmo5VWAY-40" value="Translate" style="text;html=1;strokeColor=none;fillColor=none;align=center;verticalAlign=middle;whiteSpace=wrap;rounded=0;fontSize=16;" parent="1" vertex="1">
          <mxGeometry x="448.33" y="840" width="60" height="30" as="geometry" />
        </mxCell>
        <mxCell id="fDH5sGSKuXNsmmo5VWAY-41" value="Synthesize" style="text;html=1;strokeColor=none;fillColor=none;align=center;verticalAlign=middle;whiteSpace=wrap;rounded=0;fontSize=16;" parent="1" vertex="1">
          <mxGeometry x="608.3399999999999" y="840" width="60" height="30" as="geometry" />
        </mxCell>
        <mxCell id="fDH5sGSKuXNsmmo5VWAY-46" value="" style="endArrow=none;html=1;rounded=0;fontSize=16;strokeWidth=10;" parent="1" edge="1">
          <mxGeometry width="50" height="50" relative="1" as="geometry">
            <mxPoint x="240" y="707.5" as="sourcePoint" />
            <mxPoint x="240" y="722.5" as="targetPoint" />
            <Array as="points">
              <mxPoint x="240" y="832.5" />
              <mxPoint x="240" y="717.5" />
            </Array>
          </mxGeometry>
        </mxCell>
        <mxCell id="fDH5sGSKuXNsmmo5VWAY-47" value="" style="endArrow=none;html=1;rounded=0;fontSize=16;strokeWidth=10;exitX=1.001;exitY=0.196;exitDx=0;exitDy=0;exitPerimeter=0;" parent="1" source="fDH5sGSKuXNsmmo5VWAY-113" edge="1">
          <mxGeometry width="50" height="50" relative="1" as="geometry">
            <mxPoint x="720" y="710" as="sourcePoint" />
            <mxPoint x="720" y="830" as="targetPoint" />
          </mxGeometry>
        </mxCell>
        <mxCell id="fDH5sGSKuXNsmmo5VWAY-63" value="" style="edgeStyle=orthogonalEdgeStyle;rounded=0;orthogonalLoop=1;jettySize=auto;html=1;strokeWidth=1;fontSize=16;startArrow=classic;startFill=1;endArrow=none;endFill=0;" parent="1" source="fDH5sGSKuXNsmmo5VWAY-18" edge="1">
          <mxGeometry relative="1" as="geometry">
            <mxPoint x="770.7299999999996" y="780" as="targetPoint" />
            <mxPoint x="800" y="780" as="sourcePoint" />
          </mxGeometry>
        </mxCell>
        <mxCell id="fDH5sGSKuXNsmmo5VWAY-64" value="" style="outlineConnect=0;dashed=0;verticalLabelPosition=bottom;verticalAlign=top;align=center;html=1;shape=mxgraph.aws3.bucket;fillColor=#F58534;gradientColor=#2E73B8;dashPattern=8 8;fontSize=16;" parent="1" vertex="1">
          <mxGeometry x="381.84999999999997" y="754.25" width="30.73" height="31.5" as="geometry" />
        </mxCell>
        <mxCell id="fDH5sGSKuXNsmmo5VWAY-69" style="edgeStyle=orthogonalEdgeStyle;rounded=0;orthogonalLoop=1;jettySize=auto;html=1;strokeWidth=1;fontSize=16;startArrow=none;startFill=0;endArrow=classic;endFill=1;" parent="1" source="fDH5sGSKuXNsmmo5VWAY-68" target="fDH5sGSKuXNsmmo5VWAY-17" edge="1">
          <mxGeometry relative="1" as="geometry" />
        </mxCell>
        <mxCell id="fDH5sGSKuXNsmmo5VWAY-68" value="" style="outlineConnect=0;dashed=0;verticalLabelPosition=bottom;verticalAlign=top;align=center;html=1;shape=mxgraph.aws3.bucket;fillColor=#F58534;gradientColor=#2E73B8;dashPattern=8 8;fontSize=16;" parent="1" vertex="1">
          <mxGeometry x="70" y="754.25" width="30.73" height="31.5" as="geometry" />
        </mxCell>
        <mxCell id="fDH5sGSKuXNsmmo5VWAY-116" value="" style="outlineConnect=0;dashed=0;verticalLabelPosition=bottom;verticalAlign=top;align=center;html=1;shape=mxgraph.aws3.bucket;fillColor=#F58534;gradientColor=#2E73B8;dashPattern=8 8;fontSize=16;" parent="1" vertex="1">
          <mxGeometry x="544.08" y="754.24" width="30.73" height="31.5" as="geometry" />
        </mxCell>
        <mxCell id="fDH5sGSKuXNsmmo5VWAY-119" value="" style="outlineConnect=0;dashed=0;verticalLabelPosition=bottom;verticalAlign=top;align=center;html=1;shape=mxgraph.aws3.bucket;fillColor=#F58534;gradientColor=#2E73B8;dashPattern=8 8;fontSize=16;" parent="1" vertex="1">
          <mxGeometry x="740" y="762.87" width="30.73" height="32.88" as="geometry" />
        </mxCell>
        <mxCell id="fDH5sGSKuXNsmmo5VWAY-121" value="" style="outlineConnect=0;dashed=0;verticalLabelPosition=bottom;verticalAlign=top;align=center;html=1;shape=mxgraph.aws3.bucket;fillColor=#F58534;gradientColor=#2E73B8;dashPattern=8 8;fontSize=16;" parent="1" vertex="1">
          <mxGeometry x="900" y="764.25" width="30.73" height="31.5" as="geometry" />
        </mxCell>
        <mxCell id="fDH5sGSKuXNsmmo5VWAY-127" value="Parallel For" style="text;html=1;strokeColor=none;fillColor=none;align=center;verticalAlign=middle;whiteSpace=wrap;rounded=0;fontSize=16;" parent="1" vertex="1">
          <mxGeometry x="240" y="660" width="480" height="30" as="geometry" />
        </mxCell>
      </root>
    </mxGraphModel>
  </diagram>
</mxfile>
